<svg xmlns="http://www.w3.org/2000/svg" viewBox="0 0 296.9 66">
  <defs>
    <style>
      .cls-1 {
        fill: #ff5959;
      }

      .cls-2 {
        fill: #ffad5a;
      }

      .cls-3 {
        fill: #50a597;
      }

      .cls-4 {
        fill: #89c8d3;
      }

      .cls-5 {
        fill: #e6e6e6;
      }
    </style>
  </defs>
  <g id="Layer_2" data-name="Layer 2">
    <g id="BlackBG">
      <g>
        <g>
          <path class="cls-1" d="M123,26.8a7.7,7.7,0,0,0,5,7.2l-3.8,11.6a19.9,19.9,0,0,1-13.4-18.8Z" transform="translate(-3.5 -6.8)"/>
          <path class="cls-2" d="M130.8,19a7.8,7.8,0,0,0-7.8,7.8H110.8a20.1,20.1,0,0,1,20-20Z" transform="translate(-3.5 -6.8)"/>
          <path class="cls-3" d="M150.7,26.8a20,20,0,0,0-19.9-20V19a7.7,7.7,0,0,1,7.7,7.8Z" transform="translate(-3.5 -6.8)"/>
          <path class="cls-4" d="M150.7,26.8a19.9,19.9,0,0,1-13.4,18.8L133.5,34a7.6,7.6,0,0,0,5-7.2Z" transform="translate(-3.5 -6.8)"/>
        </g>
        <g>
          <path class="cls-5" d="M94,57h2.2l5.2,13.4L106.7,57h2.2l-6.3,15.5h-2.4Z" transform="translate(-3.5 -6.8)"/>
          <path class="cls-5" d="M110.9,57h10.2v1.7h-8.2v5H121v1.7h-8.1v5.4h8.2v1.7H110.9Z" transform="translate(-3.5 -6.8)"/>
          <path class="cls-5" d="M126.1,60V72.5h-1.9V57h2l8.9,12.3V57h2V72.5h-1.9Z" transform="translate(-3.5 -6.8)"/>
          <path class="cls-5" d="M144.6,58.7h-5V57h11.8v1.7h-4.9V72.5h-1.9Z" transform="translate(-3.5 -6.8)"/>
          <path class="cls-5" d="M154,57h1.9v9.4c0,2.9,1.6,4.7,4.4,4.7s4.4-1.8,4.4-4.7V57h2v9.5c0,3.8-2.1,6.3-6.4,6.3s-6.3-2.5-6.3-6.3Z" transform="translate(-3.5 -6.8)"/>
          <path class="cls-5" d="M175.4,66.3h-3.1v6.2h-2V57h6.3a4.5,4.5,0,0,1,4.8,4.7,4.3,4.3,0,0,1-4,4.5l4.2,6.3h-2.3Zm.9-7.6h-4v5.9h4a3,3,0,1,0,0-5.9Z" transform="translate(-3.5 -6.8)"/>
          <path class="cls-5" d="M184.5,57h10.2v1.7h-8.3v5h8.1v1.7h-8.1v5.4h8.3v1.7H184.5Z" transform="translate(-3.5 -6.8)"/>
          <path class="cls-5" d="M198,68.9a6.7,6.7,0,0,0,4.9,2.2c2.8,0,3.6-1.5,3.6-2.7s-1.8-2.4-3.9-2.9-5.3-1.4-5.3-4.5,2.3-4.3,5.4-4.3a7.1,7.1,0,0,1,5.5,2.2L207,60.3a5.7,5.7,0,0,0-4.5-1.8c-1.8,0-3.2,1-3.2,2.4s1.8,2.1,3.8,2.6,5.4,1.5,5.4,4.7-1.5,4.6-5.7,4.6a7.6,7.6,0,0,1-6-2.5Z" transform="translate(-3.5 -6.8)"/>
        </g>
        <g>
          <path class="cls-5" d="M34.8,37.6a14.7,14.7,0,0,1-3.3,4.8,14.5,14.5,0,0,1-5.1,3.1,18.1,18.1,0,0,1-6.7,1.1,18.3,18.3,0,0,1-6.8-1.1,13.3,13.3,0,0,1-5-3.1,14.7,14.7,0,0,1-3.3-4.8,18,18,0,0,1-1.1-6.2V7.8h9.1V30.6a9.2,9.2,0,0,0,.4,2.9A8.3,8.3,0,0,0,14.2,36a6.5,6.5,0,0,0,2.2,1.8,8.1,8.1,0,0,0,3.3.6,8.1,8.1,0,0,0,3.3-.6A6.5,6.5,0,0,0,25.2,36a5.3,5.3,0,0,0,1.2-2.5,9.2,9.2,0,0,0,.4-2.9V7.8H36V31.4A15.9,15.9,0,0,1,34.8,37.6Z" transform="translate(-3.5 -6.8)"/>
          <path class="cls-5" d="M67.4,45.6,52.1,20.9H52l.2,24.7H43.3V7.8H53.7L68.9,32.5h.2L68.9,7.8h8.8V45.6Z" transform="translate(-3.5 -6.8)"/>
          <path class="cls-5" d="M85.5,45.6V7.8h9.2V37.7h14.6v7.9Z" transform="translate(-3.5 -6.8)"/>
        </g>
        <g>
          <path class="cls-5" d="M184.6,45a20.5,20.5,0,0,1-8.5,1.6,21.6,21.6,0,0,1-8.1-1.4,18.5,18.5,0,0,1-6.4-4.1,19.6,19.6,0,0,1-4.3-6.3,21.6,21.6,0,0,1-1.5-8.1,21.9,21.9,0,0,1,1.5-8.3,18.4,18.4,0,0,1,4.4-6.2,17.3,17.3,0,0,1,6.5-4,21.6,21.6,0,0,1,8.1-1.4,24.4,24.4,0,0,1,7.9,1.4,15,15,0,0,1,6.2,4.1l-6.2,6.2a7.8,7.8,0,0,0-3.3-2.6,10.6,10.6,0,0,0-4.3-.8,12.3,12.3,0,0,0-4.4.8,10.7,10.7,0,0,0-3.5,2.5,10.9,10.9,0,0,0-2.2,3.6,14,14,0,0,0-.8,4.7,14.5,14.5,0,0,0,.8,4.7,10.9,10.9,0,0,0,2.2,3.6,11.6,11.6,0,0,0,3.4,2.4,12,12,0,0,0,9.1-.2,11.2,11.2,0,0,0,3.3-2.8l6.3,6A19.3,19.3,0,0,1,184.6,45Z" transform="translate(-3.5 -6.8)"/>
          <path class="cls-5" d="M217.8,45.6,203.7,28.2h-.1V45.6h-8.9V7.8h8.9V23.2h.2L217.3,7.8h11.4L212.4,25.2l17.3,20.4Z" transform="translate(-3.5 -6.8)"/>
          <path class="cls-5" d="M232.7,45.6V7.8h25.4v7.7H241.5v7.1h15.7V30H241.5v7.8h17.6v7.8Z" transform="translate(-3.5 -6.8)"/>
          <path class="cls-5" d="M300.4,26.6a19.1,19.1,0,0,1-1.8,8.6,16.7,16.7,0,0,1-4.9,5.9,18.9,18.9,0,0,1-6.8,3.4,25.2,25.2,0,0,1-7.7,1.1H265.1V7.8h13.7a34.8,34.8,0,0,1,7.9.9,21.7,21.7,0,0,1,6.9,3.1,16.6,16.6,0,0,1,5,5.8A20.3,20.3,0,0,1,300.4,26.6Zm-9.5,0a11.9,11.9,0,0,0-1-5.3,9.3,9.3,0,0,0-2.8-3.4,13.2,13.2,0,0,0-4-1.8,22.2,22.2,0,0,0-4.5-.5H274V37.7h4.4a24.2,24.2,0,0,0,4.7-.5,11.4,11.4,0,0,0,4-1.9,8.6,8.6,0,0,0,2.8-3.4A11.9,11.9,0,0,0,290.9,26.6Z" transform="translate(-3.5 -6.8)"/>
        </g>
      </g>
    </g>
  </g>
</svg>
